<?xml version="1.0" encoding="UTF-8" standalone="no"?>
<!DOCTYPE svg PUBLIC "-//W3C//DTD SVG 1.1//EN" "http://www.w3.org/Graphics/SVG/1.1/DTD/svg11.dtd">
<svg version="1.1" xmlns="http://www.w3.org/2000/svg" xmlns:xlink="http://www.w3.org/1999/xlink" preserveAspectRatio="xMidYMid meet" viewBox="0 0 640 640" width="640" height="640"><defs><path d="M216.99 764.21C216.99 764.21 216.67 764.38 216.14 764.65C216.42 764.5 216.71 764.35 216.99 764.21C216.99 764.21 216.99 764.21 216.99 764.21Z" id="a23dpThvW"></path><linearGradient id="gradientbCXmE0s2P" gradientUnits="userSpaceOnUse" x1="216.56" y1="764.65" x2="216.56" y2="764.21"><stop style="stop-color: #808080;stop-opacity: 0.25" offset="0%"></stop><stop style="stop-color: #808080;stop-opacity: 0.12" offset="53.513999999999996%"></stop><stop style="stop-color: #808080;stop-opacity: 0.1" offset="100%"></stop></linearGradient><path d="M103.17 731.66C107.23 747.28 108.48 766.01 108.48 766.01C124.4 768.51 135.96 765.38 135.96 765.38C135.3 762.17 130.06 736.44 129.4 733.22C134.08 714.18 129.4 663.28 129.4 663.28C129.4 663.28 140.01 643.61 140.95 613.63C141.87 584.12 149.15 574.59 149.38 574.29C149.38 574.29 149.38 574.29 149.38 574.29C164.37 582.1 183.42 665.78 183.42 665.78C181.86 686.07 183.73 717.3 189.97 734.16C193.76 744.87 195.35 756.23 194.66 767.57C196.84 769.41 199.88 769.73 203.15 769.2C212.07 767.76 222.76 760.08 222.76 760.08C222.76 760.08 219.33 668.9 216.83 665.47C214.33 662.03 216.83 642.36 216.83 642.36C216.42 639.18 213.17 613.7 212.77 610.51C212.77 610.51 213.39 556.49 207.46 547.12C202.34 539.04 201.16 524.82 200.93 521.09C200.9 520.5 200.88 520.17 200.88 520.17C199.98 519.09 192.75 510.43 191.85 509.35C191.85 509.35 104.42 502.79 97.86 509.35C96.25 510.96 95.26 514.61 94.67 519.22C92.86 533.39 94.93 556.49 94.93 556.49C94.93 556.49 97.55 573.67 101.3 591.15C103.55 601.65 103.55 612.5 101.3 623C102.53 635.28 101.36 647.69 97.86 659.53C90.37 681.08 99.11 716.05 103.17 731.66Z" id="b2VeD5w6o"></path><path d="M134.08 797.81C136.47 796.83 136.29 792.34 135.64 787.72C135.24 784.78 134.64 781.78 134.39 779.59C133.77 773.97 136.27 762.57 136.27 762.57C136.27 762.57 131.11 768.04 129.87 762.57C129.32 760.18 127.4 758.96 125.41 758.34C122.74 757.53 119.86 757.71 117.31 758.84C113.25 760.6 106.48 764.35 107.7 769.43C109.42 776.6 103.33 786.77 103.33 786.77C102.85 787.37 102.47 788.03 102.19 788.73C101.09 791.32 101.53 794.3 103.33 796.45C107.23 801.61 130.18 799.42 134.08 797.81Z" id="bK1jGLg7H"></path><path d="M134.08 797.81C136.47 796.83 136.29 792.34 135.64 787.72C133.18 788.87 128.99 789.83 122 789.18C120.37 789.03 118.73 788.98 117.09 789.03C112.12 789.26 107.15 789.16 102.19 788.73C101.09 791.32 101.53 794.3 103.33 796.45C107.23 801.61 130.18 799.42 134.08 797.81Z" id="b4vLTxW8HL"></path><path d="M189.97 734.16C193.76 744.87 195.35 756.23 194.66 767.57C196.84 769.41 199.88 769.73 203.15 769.2C201.27 756.03 193.24 699.29 188.1 654.46C182.25 603.41 154.85 568.28 154.85 568.28C154.3 568.88 149.93 573.69 149.38 574.29C164.37 582.1 183.42 665.78 183.42 665.78C181.86 686.07 183.73 717.3 189.97 734.16Z" id="b2VRBHY24"></path><path d="M116.51 356.34L135.18 387.72C148.99 381.82 156.67 378.54 158.2 377.89C158.2 377.89 189.51 345.1 169.83 340.42C167.48 339.92 165.25 338.93 163.3 337.51C159.44 334.6 158.22 330.36 158.2 326.22C158.36 321.57 159.45 317 161.4 312.79C157.38 311.52 125.15 301.41 121.12 300.14C122.79 305.43 123.76 310.92 124.01 316.46C124.32 327.43 120.25 332.83 116.9 335.41C115.66 336.41 114.23 337.16 112.69 337.61C113.2 340.11 114.47 346.35 116.51 356.34Z" id="a38SzBjQh"></path><path d="M121.12 300.14C122.79 305.43 123.76 310.92 124.01 316.46C124.75 317.33 125.53 318.16 126.36 318.95C134.83 327.04 147.06 329.83 158.2 326.22C158.36 321.57 159.45 317 161.4 312.79C153.35 310.26 129.18 302.67 121.12 300.14Z" id="cpwXa2Rlz"></path><path d="M148.36 326.84C165.94 326.83 180.2 312.58 180.2 294.99C180.2 277.4 165.94 263.14 148.36 263.14C130.83 263.07 116.57 277.23 116.51 294.75C116.51 294.83 116.51 294.91 116.51 294.99C116.51 312.58 130.77 326.84 148.36 326.84Z" id="b8QaZgQBW"></path><path d="M116.51 356.34L135.18 387.72C148.99 381.82 156.67 378.54 158.2 377.89C158.2 377.89 189.51 345.1 169.83 340.42C167.48 339.92 165.25 338.93 163.3 337.51C166.86 347.27 152.19 367.59 152.19 367.59C150.49 370.1 146.57 368.52 146.57 368.52C137.13 367.09 119.74 339.93 116.9 335.41C115.66 336.41 114.23 337.16 112.69 337.61C113.2 340.11 114.47 346.35 116.51 356.34Z" id="b1JanGqxUS"></path><path d="M142.51 525.58C155.32 523.71 180.2 522.46 180.2 522.46C180.2 522.46 196.05 523.32 200.93 521.09C200.9 520.5 200.88 520.17 200.88 520.17C199.98 519.09 192.75 510.43 191.85 509.35C191.85 509.35 104.42 502.79 97.86 509.35C96.25 510.96 95.26 514.61 94.67 519.22C100.21 520.48 130.89 527.28 142.51 525.58Z" id="d1DWG26pdp"></path><path d="M162.46 336.81C165.24 337.96 187.5 347.08 190.29 348.23C190.29 348.23 207.04 346.2 213.08 371.19C214.05 375.35 214.4 379.62 214.11 383.88C213.89 387.65 214.41 394.28 218.7 402.87C225.57 416.61 224.01 448.14 209.96 451.27C195.91 454.39 190.91 452.83 190.91 452.83C190.91 452.83 192.78 509.97 200.9 516.53C209.02 523.08 180.2 521.52 180.2 521.52C180.2 521.52 155.32 522.77 142.51 524.64C129.71 526.52 93.8 518.09 93.8 518.09C93.8 518.09 99.11 494.04 100.98 478.74C102.86 463.44 107.23 430.86 107.23 430.86C104.04 426.55 78.57 392.04 75.38 387.72C75.38 387.72 69.76 361.65 89.43 350.1C89.43 350.1 116.51 335.71 116.51 335.71C116.51 335.71 136.27 367.9 146.57 369.46C146.57 369.46 150.49 371.03 152.19 368.52C154.25 362.18 168.67 345.7 162.46 336.81Z" id="a42qnpzLnM"></path><path d="M187.16 391.94C187.16 391.94 178.42 418.48 178.42 418.48C179.98 418.48 192.47 418.48 194.03 418.48C194.03 418.48 185.6 409.43 186.23 405.05C186.85 400.68 188.73 377.58 188.73 377.58C188.41 380.45 189.04 387.88 187.16 391.94Z" id="d2uuzJ18Ic"></path><path d="M180.2 439.71C180.2 439.71 192.27 416.46 192.27 416.46C192.03 416.13 190.82 414.5 188.63 411.56C178.57 419.46 172.98 423.85 171.86 424.73C171.86 424.73 151.88 440.65 142.51 442.21C133.15 443.77 142.51 455.33 142.51 455.33C150.05 452.2 176.99 446.9 180.2 439.71Z" id="b3zISczq6G"></path><path d="M180.2 439.71C180.2 439.71 192.27 416.46 192.27 416.46C192.03 416.13 190.82 414.5 188.63 411.56C178.57 419.46 172.98 423.85 171.86 424.73C171.86 424.73 151.88 440.65 142.51 442.21C133.15 443.77 142.51 455.33 142.51 455.33C150.05 452.2 176.99 446.9 180.2 439.71Z" id="f1X7WkMHqf"></path><path d="M112.69 414.74L112.69 433.44C114.5 433.44 115.5 433.44 115.7 433.44C130.56 433.44 145.17 437.22 158.16 444.43C158.53 444.64 160.41 445.68 163.79 447.56L165.31 448.4L174.99 426.6C169.55 421.73 166.54 419.02 165.93 418.48C165.93 418.48 165.77 418.5 165.47 418.52C163.25 418.74 153.68 419.54 149.62 418.17C145.76 416.86 140.97 412.71 129.61 415.61C124.02 417.04 119.24 423.31 113.81 421.35C113.66 420.47 113.29 418.27 112.69 414.74Z" id="a1Z1l3ysmc"></path><path d="M76.32 387.72C76.32 397.94 76.32 403.61 76.32 404.74C76.32 404.74 81.63 458.45 98.49 464.38C98.49 464.38 145.45 460.95 145.45 460.95C145.45 460.95 153.22 440.34 149.58 439.09C149.58 439.09 117.44 430.31 117.44 430.31C117.44 430.31 117.85 398.81 111.6 389.44C111.6 389.44 115.66 360.09 101.61 359.47C87.56 358.84 82.56 380.7 82.56 380.7C81.73 381.64 79.65 383.98 76.32 387.72Z" id="bLGSffQx9"></path><path d="M75.38 387.72C75.38 397.94 75.38 403.61 75.38 404.74C75.38 404.74 80.69 458.45 97.55 464.38C97.55 464.38 144.51 460.95 144.51 460.95C144.51 460.95 152.28 440.34 148.65 439.09C148.65 439.09 116.51 430.31 116.51 430.31C116.51 430.31 116.91 398.81 110.66 389.44C110.66 389.44 114.72 360.09 100.67 359.47C86.62 358.84 81.63 380.7 81.63 380.7C80.79 381.64 78.71 383.98 75.38 387.72Z" id="dSs18dx5"></path><path d="M125.95 302.44C126.83 300.58 128.89 299.11 130.9 299.58C133.58 300.21 134.73 303.69 137.35 304.52C139.55 305.22 141.97 303.66 143.02 301.59C144.07 299.53 144.1 297.11 144.11 294.8C144.11 290.89 144.12 287.76 144.13 286.97C144.13 284.14 144.21 281.07 145.97 278.84C148.14 276.06 153.26 274.85 156.67 274.96C158.95 274.99 161.13 275.87 162.79 277.42C164.62 278.98 166.73 280.12 169.22 279.72C171.34 279.39 173.08 277.89 173.7 275.84C173.71 275.8 173.72 275.77 173.73 275.74C163.1 261.73 143.12 258.98 129.11 269.61C115.09 280.24 112.35 300.22 122.98 314.23C124 315.58 125.13 316.84 126.36 318.01C125.81 314.87 125.44 311.71 125.24 308.52C124.97 306.47 125.21 304.38 125.95 302.44Z" id="bcnrVRIih"></path><path d="M173.71 274.9C173.97 273.89 173.9 272.82 174.2 271.82C174.92 269.36 177.54 268.09 179.3 266.22C182.82 262.49 182.59 256.35 180.1 251.87C178.09 248.25 174.19 245.19 170.11 245.9C167.58 246.34 165.4 248.14 162.84 248.3C160.38 248.45 158.12 247.07 155.88 246.05C150.47 243.6 144.38 243.06 138.62 244.52C136.85 244.87 135.21 245.7 133.87 246.91C132.96 248.05 132.12 249.24 131.34 250.47C128.42 254.18 123.21 254.91 118.57 255.75C113.93 256.59 108.68 258.42 107.16 262.89C106.15 265.85 107.13 269.06 107.71 272.13C107.9 272.76 107.85 273.44 107.58 274.04C106.86 275.24 105.05 274.74 103.68 275.02C101.05 275.58 100.37 278.97 100.27 281.66C100.11 286.27 100.05 289.97 100.02 290.89C99.95 292.04 100.04 293.19 100.29 294.32C100.87 295.92 101.77 297.39 102.95 298.62C103.98 299.85 112.23 309.76 113.26 311C117.83 316.49 122.69 322.89 121.76 329.98C123.93 330.95 126.5 329.08 127.22 326.82C127.93 324.55 127.35 322.11 126.87 319.78C126.04 315.76 125.49 311.69 125.24 307.59C124.97 305.53 125.21 303.44 125.96 301.51C126.83 299.64 128.9 298.18 130.91 298.65C133.58 299.27 134.73 302.75 137.35 303.58C139.55 304.29 141.97 302.72 143.02 300.66C144.07 298.59 144.1 296.18 144.11 293.86C144.11 293.08 144.12 286.82 144.12 286.04C144.13 283.2 144.22 280.13 145.97 277.9C148.14 275.12 153.26 273.91 156.68 274.02C158.95 274.05 161.13 274.93 162.78 276.49C164.62 278.04 166.73 279.19 169.22 278.78C171.34 278.46 173.08 276.95 173.71 274.9Z" id="e3EBCSGsE"></path><path d="M152.25 416.96C152.25 416.96 144.54 416.92 162.03 376.8C160.07 384.83 153.23 412.95 152.25 416.96Z" id="k8KOwbwXy6"></path><path d="M136.42 412.73C136.19 412.74 134.28 412.88 134.04 412.9C134.04 412.9 138.3 402.87 128.62 370.08C130.18 378.61 141.42 391.05 136.42 412.73Z" id="a2amKPHoYF"></path><path d="M103.64 495.61C103.64 495.61 106.61 487.33 120.5 488.74C117.13 490.11 104.78 483.54 103.64 495.61Z" id="bb4OUEcqv"></path><path d="M165.93 419.42C165.93 419.42 169.05 441.27 163.43 450.02C163.43 450.02 174.87 454.7 190.91 453.76C191.04 451.47 191.66 440.03 192.78 419.42C178.46 419.42 169.51 419.42 165.93 419.42Z" id="cKMXhym5m"></path><path d="M165.31 448.4L174.99 426.6L165.93 418.48C165.65 418.48 165.5 418.48 165.46 418.48C165.46 418.5 165.47 418.51 165.47 418.52C165.61 419.53 168.13 438.3 163.79 447.56C163.99 447.67 164.5 447.95 165.31 448.4Z" id="dnlwcDGNv"></path><path d="M165.93 418.48C165.93 418.48 169.05 440.34 163.43 449.08C163.43 449.08 174.87 453.76 190.91 452.83C191.64 450.54 195.28 439.09 201.84 418.48C182.69 418.48 170.72 418.48 165.93 418.48Z" id="bNEMV5Mqz"></path><path d="M197 797.33C205.48 798.6 225.91 794.84 231.07 797.29C237.62 800.42 263.54 798.23 264.79 795.11C265.14 793.85 264.98 792.5 264.34 791.35C263.45 789.45 261.99 787.88 260.15 786.85C259.55 786.51 258.93 786.23 258.27 786.02C253.39 784.39 244.17 780.93 241.68 777.31C241.68 777.31 230.19 767.26 226.91 761.82C225.66 759.65 223.41 758.25 220.91 758.08C218.17 757.96 215.13 759.33 213.88 765.33C213.88 765.33 198.9 773.87 194.85 766.38C194.85 766.38 194.22 784.89 191.74 788.03C191.73 788.04 191.73 788.05 191.72 788.05C191.06 788.94 190.78 790.05 190.94 791.15C191.31 794.35 193.81 796.9 197 797.33Z" id="k1nmIBXPaQ"></path><path d="M197 797.33C205.48 798.6 225.91 794.84 231.07 797.29C237.62 800.42 263.54 798.23 264.79 795.11C265.14 793.85 264.98 792.5 264.34 791.35C263.45 789.45 261.99 787.88 260.15 786.85C255.93 789.65 246.55 792.4 225.91 789.18C206.23 786.1 196.49 790.08 191.74 788.03C191.73 788.04 191.73 788.05 191.72 788.05C191.06 788.94 190.78 790.05 190.94 791.15C191.31 794.35 193.81 796.9 197 797.33Z" id="bzsZKz9JX"></path><path d="M107.71 272.42C107.27 270.08 106.6 267.66 106.75 265.33C106.95 267.24 107.27 269.14 107.71 271.02C107.84 271.53 107.85 272.06 107.74 272.57C107.73 272.52 107.72 272.47 107.71 272.42Z" id="bzSrPI8gC"></path><path d="M125.19 305.37C125.05 303.67 125.31 301.97 125.96 300.39C126.84 298.53 128.9 297.06 130.91 297.53C133.58 298.15 134.73 301.63 137.35 302.47C139.56 303.17 141.97 301.6 143.02 299.54C144.07 297.48 144.1 295.06 144.11 292.75C144.12 288.83 144.12 285.7 144.13 284.92C144.13 282.09 144.22 279.02 145.97 276.78C148.15 274.01 153.26 272.8 156.68 272.91C158.95 272.93 161.13 273.81 162.79 275.37C164.62 276.93 166.73 278.07 169.22 277.66C171.34 277.34 173.08 275.83 173.71 273.78C173.97 272.78 173.9 271.7 174.2 270.7C174.93 268.25 177.55 266.97 179.3 265.11C180.94 263.29 181.87 260.95 181.93 258.51C182.2 261.42 181.24 264.32 179.3 266.51C177.55 268.37 174.93 269.65 174.2 272.11C173.9 273.11 173.97 274.18 173.71 275.19C173.08 277.24 171.34 278.75 169.22 279.07C166.73 279.47 164.62 278.33 162.79 276.78C161.13 275.22 158.95 274.34 156.68 274.31C153.26 274.2 148.15 275.41 145.97 278.19C144.22 280.42 144.13 283.49 144.13 286.33C144.12 290.24 144.11 293.37 144.11 294.15C144.1 296.47 144.07 298.88 143.02 300.95C141.97 303.01 139.56 304.58 137.35 303.87C134.73 303.04 133.58 299.56 130.91 298.93C128.9 298.46 126.84 299.93 125.96 301.8C125.46 302.92 125.2 304.14 125.19 305.37Z" id="anl0XJIDT"></path><path d="M102.95 297.5C108.11 303.69 112.23 308.65 113.26 309.89C117.6 315.1 122.19 321.13 121.86 327.8C121.55 321.69 117.29 316.14 113.26 311.29C108.11 305.1 103.98 300.14 102.95 298.9C101.77 297.67 100.87 296.21 100.3 294.61C100.04 293.48 99.95 292.33 100.02 291.18C100.03 291.86 100.12 292.54 100.3 293.2C100.87 294.8 101.77 296.27 102.95 297.5Z" id="b26m4kte7r"></path><path d="M127.53 324.03C127.61 325.06 127.51 326.11 127.22 327.11C126.51 329.37 123.93 331.24 121.77 330.27C121.83 329.82 121.86 329.36 121.87 328.9C124.02 329.77 126.52 327.93 127.22 325.7C127.38 325.16 127.49 324.6 127.53 324.03Z" id="a3RcbEc5EV"></path><path d="M228.97 764.65C228.97 764.65 225.71 770.39 213.88 765.33" id="b1AXuHD3nr"></path><path d="M130.99 765.03C130.99 765.03 120.78 777.04 107.93 768.97" id="fDboZQ06b"></path><path d="M101.3 623C101.3 623 108.51 627.5 108.74 630.08C108.74 630.08 105.02 628.2 105.02 628.2C104.27 627.16 102.04 624.04 101.3 623Z" id="gajuyYdg"></path><path d="M107.33 660.99C112.72 661.22 112.27 668.25 108.75 666.14C105.23 664.03 98.45 657.52 98.45 657.52C100.96 659.61 104.08 660.83 107.33 660.99Z" id="c1Qi0AIC4i"></path><path d="M97.08 662.03C97.08 662.03 100.54 679.02 103.35 675.74" id="b1UA8HPPKG"></path><path d="M43.08 516.05C47 505.26 41.44 493.33 30.65 489.41C26.98 488.08 23.02 487.8 19.21 488.62C19.24 489.33 19.42 492.9 19.73 499.32C16.69 493.81 15.01 490.76 14.67 490.15C9.7 492.48 5.86 496.69 4 501.85C3.33 503.66 2.93 505.56 2.8 507.48C2.14 516.74 7.71 525.32 16.44 528.48C27.23 532.41 39.16 526.84 43.08 516.05Z" id="a2HObZGdlz"></path><path d="M36.97 648.84C35.18 639.74 42.93 631.67 50.57 626.43C58.22 621.19 67.16 616.03 69.77 607.13C73.52 594.35 62.35 582.63 53.65 572.53C47.2 565.04 41.66 556.8 37.15 548C35.34 544.48 33.68 540.79 33.2 536.85C32.52 531.18 34.34 525.54 36.17 520.13C42.28 502.12 48.82 484.26 55.78 466.55" id="a17VgtcML"></path><path d="M40.33 513.53C44.26 502.74 38.69 490.81 27.9 486.89C24.24 485.56 20.27 485.28 16.46 486.1C16.5 486.81 16.67 490.38 16.98 496.8C13.94 491.29 12.26 488.24 11.92 487.63C6.95 489.96 3.11 494.17 1.25 499.34C0.59 501.14 0.18 503.04 0.05 504.96C-0.6 514.22 4.96 522.8 13.69 525.97C24.48 529.89 36.41 524.32 40.33 513.53Z" id="b5XNthbU0"></path><path d="M47.26 440.96C47.37 441.64 47.94 445.03 48.97 451.13C50.87 444.72 51.93 441.16 52.14 440.45C63.62 440.62 72.79 450.06 72.62 461.54C72.45 473.02 63 482.19 51.53 482.02C40.05 481.85 30.88 472.4 31.05 460.92C31.08 458.61 31.51 456.32 32.29 454.14C34.71 447.48 40.35 442.52 47.26 440.96Z" id="a5tDqTyAz"></path><path d="M47.21 440.74C47.32 441.42 47.89 444.81 48.92 450.91C50.82 444.5 51.88 440.94 52.09 440.23C63.57 440.4 72.74 449.84 72.57 461.32C72.4 472.8 62.95 481.97 51.48 481.8C40 481.62 30.83 472.18 31 460.7C31.04 458.39 31.46 456.1 32.25 453.92C34.66 447.26 40.3 442.29 47.21 440.74Z" id="a595Fh21fy"></path><path d="M91.27 572.02C94.57 562.93 91.16 552.76 83.04 547.49C82.88 548.04 82.07 550.78 80.6 555.7C79.57 549.53 78.99 546.1 78.87 545.41C78.86 545.4 78.84 545.4 78.82 545.39C68.03 541.47 56.11 547.04 52.18 557.83C48.26 568.62 53.83 580.54 64.62 584.46C64.63 584.47 64.64 584.47 64.64 584.47C75.44 588.39 87.36 582.81 91.27 572.02Z" id="e1nsXqz4de"></path><path d="M90.06 572.02C93.36 562.93 89.95 552.76 81.83 547.49C81.67 548.04 80.86 550.78 79.39 555.7C78.36 549.53 77.78 546.1 77.67 545.41C77.65 545.4 77.63 545.4 77.61 545.39C66.82 541.47 54.9 547.04 50.98 557.83C47.05 568.62 52.62 580.54 63.41 584.46C63.42 584.47 63.43 584.47 63.44 584.47C74.23 588.39 86.15 582.81 90.06 572.02Z" id="c1l1yCG8u2"></path><path d="M55.39 629.76C66.69 627.76 74.24 616.91 72.25 605.54C70.27 594.16 59.5 586.56 48.19 588.56C43.09 589.46 38.5 592.26 35.33 596.39C35.95 597.33 39.04 602.01 44.59 610.42C37 605.96 32.78 603.47 31.94 602.98C30.96 606.15 30.75 609.51 31.33 612.78C33.31 624.16 44.08 631.76 55.39 629.76Z" id="eEgs0QyrG"></path><path d="M34.31 631.26C34.31 631.26 62.53 622.63 63.9 628.94C63.9 628.94 91.46 660.34 70.75 660.51C70.75 660.51 22.63 663.91 17.11 660.55C11.6 657.18 10.44 642.39 10.44 642.39C15.21 640.16 28.78 635.2 34.31 631.26Z" id="b2fWoRrHDH"></path><path d="M54.53 629.48C65.83 627.5 73.38 616.73 71.39 605.42C69.41 594.12 58.63 586.57 47.33 588.56C42.23 589.45 37.64 592.23 34.47 596.34C35.09 597.27 38.18 601.91 43.73 610.28C36.14 605.84 31.92 603.37 31.08 602.88C30.1 606.03 29.89 609.37 30.47 612.62C32.45 623.92 43.22 631.47 54.53 629.48Z" id="f1ulkHf8n2"></path><path d="M17.26 797.28C13.06 794.72 11.38 785.54 10.82 781.3C10.44 781.32 10.21 781.32 10.21 781.32C10.21 781.32 11.37 796.12 16.89 799.48C22.41 802.84 49.82 799.61 70.53 799.44C76.51 799.39 78.57 797.27 78.46 794.12C77.63 796.02 75.35 797.21 70.9 797.24C50.19 797.41 22.78 800.64 17.26 797.28Z" id="aiyFst2Tg"></path><path d="M51.09 798.62L322.77 798.62" id="a229yCoe8D"></path></defs><g><g><g><use xlink:href="#a23dpThvW" opacity="1" fill="url(#gradientbCXmE0s2P)"></use><g><use xlink:href="#a23dpThvW" opacity="1" fill-opacity="0" stroke="#000000" stroke-width="1" stroke-opacity="0"></use></g></g><g><use xlink:href="#b2VeD5w6o" opacity="1" fill="#575a89" fill-opacity="1"></use><g><use xlink:href="#b2VeD5w6o" opacity="1" fill-opacity="0" stroke="#000000" stroke-width="1" stroke-opacity="0"></use></g></g><g><use xlink:href="#bK1jGLg7H" opacity="1" fill="#cbceda" fill-opacity="1"></use><g><use xlink:href="#bK1jGLg7H" opacity="1" fill-opacity="0" stroke="#000000" stroke-width="1" stroke-opacity="0"></use></g></g><g><use xlink:href="#b4vLTxW8HL" opacity="1" fill="#000000" fill-opacity="1"></use><g><use xlink:href="#b4vLTxW8HL" opacity="1" fill-opacity="0" stroke="#000000" stroke-width="1" stroke-opacity="0"></use></g></g><g><use xlink:href="#b2VRBHY24" opacity="1" fill="#000000" fill-opacity="1"></use><g><use xlink:href="#b2VRBHY24" opacity="1" fill-opacity="0" stroke="#000000" stroke-width="1" stroke-opacity="0"></use></g></g><g><use xlink:href="#a38SzBjQh" opacity="1" fill="#fbbebe" fill-opacity="1"></use><g><use xlink:href="#a38SzBjQh" opacity="1" fill-opacity="0" stroke="#000000" stroke-width="1" stroke-opacity="0"></use></g></g><g><use xlink:href="#cpwXa2Rlz" opacity="1" fill="#000000" fill-opacity="1"></use><g><use xlink:href="#cpwXa2Rlz" opacity="1" fill-opacity="0" stroke="#000000" stroke-width="1" stroke-opacity="0"></use></g></g><g><use xlink:href="#b8QaZgQBW" opacity="1" fill="#fbbebe" fill-opacity="1"></use><g><use xlink:href="#b8QaZgQBW" opacity="1" fill-opacity="0" stroke="#000000" stroke-width="1" stroke-opacity="0"></use></g></g><g><use xlink:href="#b1JanGqxUS" opacity="1" fill="#000000" fill-opacity="1"></use><g><use xlink:href="#b1JanGqxUS" opacity="1" fill-opacity="0" stroke="#000000" stroke-width="1" stroke-opacity="0"></use></g></g><g><use xlink:href="#d1DWG26pdp" opacity="1" fill="#000000" fill-opacity="1"></use><g><use xlink:href="#d1DWG26pdp" opacity="1" fill-opacity="0" stroke="#000000" stroke-width="1" stroke-opacity="0"></use></g></g><g><use xlink:href="#a42qnpzLnM" opacity="1" fill="#3f3d56" fill-opacity="1"></use><g><use xlink:href="#a42qnpzLnM" opacity="1" fill-opacity="0" stroke="#000000" stroke-width="1" stroke-opacity="0"></use></g></g><g><use xlink:href="#d2uuzJ18Ic" opacity="1" fill="#000000" fill-opacity="1"></use><g><use xlink:href="#d2uuzJ18Ic" opacity="1" fill-opacity="0" stroke="#000000" stroke-width="1" stroke-opacity="0"></use></g></g><g><use xlink:href="#b3zISczq6G" opacity="1" fill="#fbbebe" fill-opacity="1"></use><g><use xlink:href="#b3zISczq6G" opacity="1" fill-opacity="0" stroke="#000000" stroke-width="1" stroke-opacity="0"></use></g></g><g><use xlink:href="#f1X7WkMHqf" opacity="1" fill="#000000" fill-opacity="1"></use><g><use xlink:href="#f1X7WkMHqf" opacity="1" fill-opacity="0" stroke="#000000" stroke-width="1" stroke-opacity="0"></use></g></g><g><use xlink:href="#a1Z1l3ysmc" opacity="1" fill="#fbbebe" fill-opacity="1"></use><g><use xlink:href="#a1Z1l3ysmc" opacity="1" fill-opacity="0" stroke="#000000" stroke-width="1" stroke-opacity="0"></use></g></g><g><use xlink:href="#bLGSffQx9" opacity="1" fill="#000000" fill-opacity="1"></use><g><use xlink:href="#bLGSffQx9" opacity="1" fill-opacity="0" stroke="#000000" stroke-width="1" stroke-opacity="0"></use></g></g><g><use xlink:href="#dSs18dx5" opacity="1" fill="#3f3d56" fill-opacity="1"></use><g><use xlink:href="#dSs18dx5" opacity="1" fill-opacity="0" stroke="#000000" stroke-width="1" stroke-opacity="0"></use></g></g><g><use xlink:href="#bcnrVRIih" opacity="1" fill="#000000" fill-opacity="1"></use><g><use xlink:href="#bcnrVRIih" opacity="1" fill-opacity="0" stroke="#000000" stroke-width="1" stroke-opacity="0"></use></g></g><g><use xlink:href="#e3EBCSGsE" opacity="1" fill="#3f3d56" fill-opacity="1"></use><g><use xlink:href="#e3EBCSGsE" opacity="1" fill-opacity="0" stroke="#000000" stroke-width="1" stroke-opacity="0"></use></g></g><g><use xlink:href="#k8KOwbwXy6" opacity="1" fill="#000000" fill-opacity="1"></use><g><use xlink:href="#k8KOwbwXy6" opacity="1" fill-opacity="0" stroke="#000000" stroke-width="1" stroke-opacity="0"></use></g></g><g><use xlink:href="#a2amKPHoYF" opacity="1" fill="#000000" fill-opacity="1"></use><g><use xlink:href="#a2amKPHoYF" opacity="1" fill-opacity="0" stroke="#000000" stroke-width="1" stroke-opacity="0"></use></g></g><g><use xlink:href="#bb4OUEcqv" opacity="1" fill="#000000" fill-opacity="1"></use><g><use xlink:href="#bb4OUEcqv" opacity="1" fill-opacity="0" stroke="#000000" stroke-width="1" stroke-opacity="0"></use></g></g><g><use xlink:href="#cKMXhym5m" opacity="1" fill="#000000" fill-opacity="1"></use><g><use xlink:href="#cKMXhym5m" opacity="1" fill-opacity="0" stroke="#000000" stroke-width="1" stroke-opacity="0"></use></g></g><g><use xlink:href="#dnlwcDGNv" opacity="1" fill="#000000" fill-opacity="1"></use><g><use xlink:href="#dnlwcDGNv" opacity="1" fill-opacity="0" stroke="#000000" stroke-width="1" stroke-opacity="0"></use></g></g><g><use xlink:href="#bNEMV5Mqz" opacity="1" fill="#3f3d56" fill-opacity="1"></use><g><use xlink:href="#bNEMV5Mqz" opacity="1" fill-opacity="0" stroke="#000000" stroke-width="1" stroke-opacity="0"></use></g></g><g><use xlink:href="#k1nmIBXPaQ" opacity="1" fill="#cbceda" fill-opacity="1"></use><g><use xlink:href="#k1nmIBXPaQ" opacity="1" fill-opacity="0" stroke="#000000" stroke-width="1" stroke-opacity="0"></use></g></g><g><use xlink:href="#bzsZKz9JX" opacity="1" fill="#000000" fill-opacity="1"></use><g><use xlink:href="#bzsZKz9JX" opacity="1" fill-opacity="0" stroke="#000000" stroke-width="1" stroke-opacity="0"></use></g></g><g><use xlink:href="#bzSrPI8gC" opacity="1" fill="#000000" fill-opacity="1"></use><g><use xlink:href="#bzSrPI8gC" opacity="1" fill-opacity="0" stroke="#000000" stroke-width="1" stroke-opacity="0"></use></g></g><g><use xlink:href="#anl0XJIDT" opacity="1" fill="#000000" fill-opacity="1"></use><g><use xlink:href="#anl0XJIDT" opacity="1" fill-opacity="0" stroke="#000000" stroke-width="1" stroke-opacity="0"></use></g></g><g><use xlink:href="#b26m4kte7r" opacity="1" fill="#000000" fill-opacity="1"></use><g><use xlink:href="#b26m4kte7r" opacity="1" fill-opacity="0" stroke="#000000" stroke-width="1" stroke-opacity="0"></use></g></g><g><use xlink:href="#a3RcbEc5EV" opacity="1" fill="#000000" fill-opacity="1"></use><g><use xlink:href="#a3RcbEc5EV" opacity="1" fill-opacity="0" stroke="#000000" stroke-width="1" stroke-opacity="0"></use></g></g><g><use xlink:href="#b1AXuHD3nr" opacity="1" fill="#000000" fill-opacity="1"></use><g><use xlink:href="#b1AXuHD3nr" opacity="1" fill-opacity="0" stroke="#000000" stroke-width="1" stroke-opacity="0"></use></g></g><g><use xlink:href="#fDboZQ06b" opacity="1" fill="#000000" fill-opacity="1"></use><g><use xlink:href="#fDboZQ06b" opacity="1" fill-opacity="0" stroke="#000000" stroke-width="1" stroke-opacity="0"></use></g></g><g><use xlink:href="#gajuyYdg" opacity="1" fill="#000000" fill-opacity="1"></use><g><use xlink:href="#gajuyYdg" opacity="1" fill-opacity="0" stroke="#000000" stroke-width="1" stroke-opacity="0"></use></g></g><g><use xlink:href="#c1Qi0AIC4i" opacity="1" fill="#000000" fill-opacity="1"></use><g><use xlink:href="#c1Qi0AIC4i" opacity="1" fill-opacity="0" stroke="#000000" stroke-width="1" stroke-opacity="0"></use></g></g><g><use xlink:href="#b1UA8HPPKG" opacity="1" fill="#000000" fill-opacity="1"></use><g><use xlink:href="#b1UA8HPPKG" opacity="1" fill-opacity="0" stroke="#000000" stroke-width="1" stroke-opacity="0"></use></g></g><g><use xlink:href="#a2HObZGdlz" opacity="1" fill="#57b894" fill-opacity="1"></use><g><use xlink:href="#a2HObZGdlz" opacity="1" fill-opacity="0" stroke="#000000" stroke-width="1" stroke-opacity="0"></use></g></g><g><use xlink:href="#a17VgtcML" opacity="1" fill="#000000" fill-opacity="0"></use><g><use xlink:href="#a17VgtcML" opacity="1" fill-opacity="0" stroke="#3f3d56" stroke-width="1" stroke-opacity="1"></use></g></g><g><use xlink:href="#b5XNthbU0" opacity="1" fill="#000000" fill-opacity="0"></use><g><use xlink:href="#b5XNthbU0" opacity="1" fill-opacity="0" stroke="#3f3d56" stroke-width="1" stroke-opacity="1"></use></g></g><g><use xlink:href="#a5tDqTyAz" opacity="1" fill="#57b894" fill-opacity="1"></use><g><use xlink:href="#a5tDqTyAz" opacity="1" fill-opacity="0" stroke="#000000" stroke-width="1" stroke-opacity="0"></use></g></g><g><use xlink:href="#a595Fh21fy" opacity="1" fill="#000000" fill-opacity="0"></use><g><use xlink:href="#a595Fh21fy" opacity="1" fill-opacity="0" stroke="#3f3d56" stroke-width="1" stroke-opacity="1"></use></g></g><g><use xlink:href="#e1nsXqz4de" opacity="1" fill="#57b894" fill-opacity="1"></use><g><use xlink:href="#e1nsXqz4de" opacity="1" fill-opacity="0" stroke="#000000" stroke-width="1" stroke-opacity="0"></use></g></g><g><use xlink:href="#c1l1yCG8u2" opacity="1" fill="#000000" fill-opacity="0"></use><g><use xlink:href="#c1l1yCG8u2" opacity="1" fill-opacity="0" stroke="#3f3d56" stroke-width="1" stroke-opacity="1"></use></g></g><g><use xlink:href="#eEgs0QyrG" opacity="1" fill="#57b894" fill-opacity="1"></use><g><use xlink:href="#eEgs0QyrG" opacity="1" fill-opacity="0" stroke="#000000" stroke-width="1" stroke-opacity="0"></use></g></g><g><use xlink:href="#b2fWoRrHDH" opacity="1" fill="#656380" fill-opacity="1"></use><g><use xlink:href="#b2fWoRrHDH" opacity="1" fill-opacity="0" stroke="#000000" stroke-width="1" stroke-opacity="0"></use></g></g><g><use xlink:href="#f1ulkHf8n2" opacity="1" fill="#000000" fill-opacity="0"></use><g><use xlink:href="#f1ulkHf8n2" opacity="1" fill-opacity="0" stroke="#3f3d56" stroke-width="1" stroke-opacity="1"></use></g></g><g><use xlink:href="#aiyFst2Tg" opacity="1" fill="#000000" fill-opacity="1"></use><g><use xlink:href="#aiyFst2Tg" opacity="1" fill-opacity="0" stroke="#000000" stroke-width="1" stroke-opacity="0"></use></g></g><g><use xlink:href="#a229yCoe8D" opacity="1" fill="#000000" fill-opacity="0"></use><g><use xlink:href="#a229yCoe8D" opacity="1" fill-opacity="0" stroke="#3f3d56" stroke-width="1" stroke-opacity="1"></use></g></g></g></g></svg>